<svg aria-hidden="true" style="position: absolute; width: 0; height: 0; overflow: hidden;" version="1.1" xmlns="http://www.w3.org/2000/svg" xmlns:xlink="http://www.w3.org/1999/xlink">
<defs>
<symbol id="icon-low" viewBox="0 0 32 32">
<path d="M19.892 6.919c0-2.146-1.746-3.892-3.892-3.892s-3.892 1.746-3.892 3.892v11.872c-1.23 1.103-1.946 2.679-1.946 4.343 0 3.22 2.619 5.838 5.838 5.838s5.837-2.618 5.837-5.838c0-1.663-0.716-3.242-1.946-4.343v-11.872zM16 26.378c-1.788 0-3.243-1.454-3.243-3.243 0-1.053 0.52-2.046 1.392-2.657l0.554-0.388v-13.171c0-0.715 0.582-1.297 1.297-1.297s1.297 0.582 1.297 1.297v13.172l0.554 0.388c0.872 0.608 1.392 1.602 1.392 2.655 0 1.789-1.456 3.243-3.243 3.243z"></path>
<path d="M17.755 23.176c0 0.969-0.786 1.755-1.755 1.755s-1.755-0.786-1.755-1.755c0-0.969 0.786-1.755 1.755-1.755s1.755 0.786 1.755 1.755z"></path>
</symbol>
<symbol id="icon-precipitation" viewBox="0 0 32 32">
<path d="M30.536 15.355c-1.55-6.195-6.797-10.65-13.037-11.273v-3.083h-3v3.083c-6.24 0.623-11.487 5.078-13.036 11.273-0.139 0.558 0.052 1.149 0.496 1.517s1.058 0.45 1.582 0.213c3.531-1.61 7.653-1.354 10.953 0.55v9.615c0 2.069 1.683 3.75 3.75 3.75s3.75-1.681 3.75-3.75v-0.75h-3v0.75c0 0.414-0.336 0.75-0.75 0.75s-0.75-0.336-0.75-0.75v-9.608c3.302-1.911 7.431-2.171 10.965-0.558 0.523 0.238 1.139 0.156 1.582-0.213s0.633-0.959 0.494-1.517zM16 15.010c-2.276-1.317-4.848-2.010-7.5-2.010-1.035 0-2.058 0.107-3.060 0.318 2.050-3.826 6.061-6.318 10.56-6.318s8.51 2.492 10.56 6.318c-3.566-0.752-7.396-0.139-10.56 1.692z"></path>
</symbol>
</defs>
</svg>
